<svg width="1200" height="1200" viewBox="0 0 1200 1200" fill="none" xmlns="http://www.w3.org/2000/svg">
<path d="M600 0C931.371 0 1200 268.629 1200 600C1200 931.371 931.371 1200 600 1200C268.629 1200 0 931.371 0 600C0 268.629 268.629 0 600 0ZM598.98 106.497C324.597 106.497 102.166 328.929 102.166 603.312C102.166 877.696 324.597 1100.13 598.98 1100.13C873.364 1100.13 1095.8 877.696 1095.8 603.312C1095.8 328.929 873.364 106.497 598.98 106.497Z" fill="#121315"/>
<circle cx="598.981" cy="603.312" r="496.815" fill="#F35226"/>
<path d="M342.801 701.903C465.478 670.415 555.67 717.714 579.245 813.502C599.49 929.936 535.541 998.726 425.78 1025.18C307.77 1056.31 215.031 1010.45 189.337 913.583C167.643 808.408 233.631 725.103 342.801 701.903ZM448.412 835.414C434.653 775.434 401.023 771.21 367.033 775.434C333.043 779.658 301.914 807.388 313.635 878.98C320.096 918.471 338.348 951.082 388.539 953.885C443.316 947.515 462.171 895.394 448.412 835.414Z" fill="#121315"/>
<path d="M150.318 262.93L478.471 230.318L542.165 321.529L315.414 343.439L322.038 356.943L329.172 374.013L340.127 405.86L530.191 379.363L523.057 446.115L362.548 482.802L378.344 556.688L392.357 642.548L276.943 682.293L256.56 569.936L228.79 463.694L189.299 356.688L150.318 262.93Z" fill="#121315"/>
<path d="M636.178 88.1528H757.707L746.497 270.828L728.917 411.974L966.879 439.745L907.261 529.681L695.78 514.332C689.347 513.865 682.962 512.88 676.687 511.387L590.828 490.955L626.752 294.777L636.178 172.484V88.1528Z" fill="#121315"/>
<path d="M591.083 626.752L696.306 576.306L725.86 793.121L770.446 637.707L849.937 606.369L902.675 826.497L923.822 753.63L940.892 658.089L945.886 582.493C946.293 576.339 946.224 570.163 945.681 564.019L941.656 518.471L1060.38 468.025L1065.99 524.586V585.732L1061.91 647.643L1054.16 715.157C1053.39 721.94 1052.03 728.645 1050.11 735.197L1009.43 874.14L960.51 1001.27L849.172 1038.98L814.777 896.56L781.401 791.337L764.586 826.497L746.242 874.14L713.121 971.21L621.911 988.28L591.083 626.752Z" fill="#121315"/>
</svg>
